<?xml version="1.0" ?><svg viewBox="0 0 32 32" xmlns="http://www.w3.org/2000/svg"><defs><style>.cls-1{fill:#101820;}</style></defs><title/><g data-name="Layer 8" id="Layer_8"><path class="cls-1" d="M18,31H8a5,5,0,0,1-5-5V16a1,1,0,0,1,1-1H22a1,1,0,0,1,1,1V26A5,5,0,0,1,18,31ZM5,17v9a3,3,0,0,0,3,3H18a3,3,0,0,0,3-3V17Z"/><path class="cls-1" d="M26,27a1,1,0,0,1,0-2,1,1,0,0,0,1-1V20a1,1,0,0,0-1-1H22a1,1,0,0,1,0-2h4a3,3,0,0,1,3,3v4A3,3,0,0,1,26,27Z"/><path class="cls-1" d="M22,13a1,1,0,0,1-.69-.28L16.21,7.8a3.9,3.9,0,0,1,0-5.65,4.18,4.18,0,0,1,5.76,0l0,0,0,0a4.18,4.18,0,0,1,5.76,0h0a3.9,3.9,0,0,1,0,5.65l-5.1,4.92A1,1,0,0,1,22,13ZM19.08,3a2.11,2.11,0,0,0-1.48.59,1.91,1.91,0,0,0,0,2.78L22,10.61l4.4-4.24a1.91,1.91,0,0,0,0-2.78,2.22,2.22,0,0,0-3,0l-.73.7a1,1,0,0,1-1.38,0l-.73-.7A2.16,2.16,0,0,0,19.08,3Z"/><path class="cls-1" d="M8,13a1,1,0,0,1-.66-.24L4,9.81a2.62,2.62,0,0,1,0-4A3.36,3.36,0,0,1,8,5.63a3.38,3.38,0,0,1,4.05.14h0a2.62,2.62,0,0,1,0,4L8.66,12.76A1,1,0,0,1,8,13ZM6.06,7a1.2,1.2,0,0,0-.8.28A.66.66,0,0,0,5,7.79a.69.69,0,0,0,.26.51L8,10.68,10.74,8.3A.69.69,0,0,0,11,7.79a.66.66,0,0,0-.26-.51h0a1.33,1.33,0,0,0-1.6,0l-.48.42a1,1,0,0,1-1.32,0l-.48-.42A1.22,1.22,0,0,0,6.06,7Z"/></g></svg>