<?xml version="1.0" ?><svg viewBox="0 0 32 32" xmlns="http://www.w3.org/2000/svg"><defs><style>.cls-1{fill:#101820;}</style></defs><title/><g data-name="Layer 14" id="Layer_14"><path class="cls-1" d="M23,31H9a3,3,0,0,1-3-3V4A3,3,0,0,1,9,1H23a3,3,0,0,1,3,3V28A3,3,0,0,1,23,31ZM9,3A1,1,0,0,0,8,4V28a1,1,0,0,0,1,1H23a1,1,0,0,0,1-1V4a1,1,0,0,0-1-1Z"/><path class="cls-1" d="M25,25H7a1,1,0,0,1,0-2H25a1,1,0,0,1,0,2Z"/><path class="cls-1" d="M17,28H15a1,1,0,0,1,0-2h2a1,1,0,0,1,0,2Z"/><path class="cls-1" d="M25,7H7A1,1,0,0,1,7,5H25a1,1,0,0,1,0,2Z"/><path class="cls-1" d="M16,19a1,1,0,0,1-.66-.25L12,15.81a2.62,2.62,0,0,1,0-4A3.36,3.36,0,0,1,16,11.63a3.38,3.38,0,0,1,4.05.14h0a2.62,2.62,0,0,1,0,4l-3.39,2.94A1,1,0,0,1,16,19Zm-1.94-6a1.2,1.2,0,0,0-.8.28.66.66,0,0,0-.26.51.69.69,0,0,0,.26.51L16,16.68l2.74-2.38a.69.69,0,0,0,.26-.51.66.66,0,0,0-.26-.51,1.32,1.32,0,0,0-1.6,0l-.48.42a1,1,0,0,1-1.32,0l-.48-.42A1.22,1.22,0,0,0,14.06,13Z"/></g></svg>