<?xml version="1.0" ?><svg viewBox="0 0 32 32" xmlns="http://www.w3.org/2000/svg"><defs><style>.cls-1{fill:currentColor;}</style></defs><title/><g data-name="Layer 11" id="Layer_11"><path class="cls-1" d="M16,31a1,1,0,0,1-.7-.29L3.41,18.91a8.1,8.1,0,0,1,0-11.53,8.24,8.24,0,0,1,11.6,0A1,1,0,0,1,15,8.8a1,1,0,0,1-1.42,0,6.25,6.25,0,0,0-8.78,0,6.12,6.12,0,0,0,0,8.69L16,28.59l11.19-11.1a6.15,6.15,0,0,0,1.73-5.33,1,1,0,1,1,2-.32,8.14,8.14,0,0,1-2.3,7.07L16.7,30.71A1,1,0,0,1,16,31Z"/><path class="cls-1" d="M16,17a1,1,0,0,1-.71-.29,1,1,0,0,1-.28-.85l.74-5.16a1,1,0,0,1,.28-.56l8.84-8.85a1,1,0,0,1,1.42,0l4.42,4.42a1,1,0,0,1,0,1.42L21.86,16a1,1,0,0,1-.56.28L16.14,17Zm1.68-5.69-.5,3.51,3.51-.5,7.9-7.9-3-3Z"/></g></svg>
