<?xml version="1.0" ?><svg id="solid" viewBox="0 0 64 64" xmlns="http://www.w3.org/2000/svg"><title/><path d="M57.84,33.6663l-.2541-.2542-3.53,3.5361-.0019.0019.2562.2561a2.3653,2.3653,0,0,1-3.35,3.34l-7.1357-7.1357-.002.002-3.5308,3.5352L47.43,44.0862a7.3645,7.3645,0,1,0,10.41-10.42Z"/><path d="M30.33,6.1562a7.3646,7.3646,0,0,0-10.42,10.41l.2658.2657h0l3.5283-3.5381.0018-.0017-.2559-.2559a2.365,2.365,0,0,1,1.67-4.04,2.3459,2.3459,0,0,1,1.67.69l7.1457,7.1456.0018-.0018,3.53-3.5362Z"/><polygon points="47.685 30.582 51.226 27.052 43.834 19.66 40.294 23.19 47.685 30.582"/><polygon points="33.926 30.582 37.466 27.052 30.074 19.66 26.534 23.19 33.926 30.582"/><path d="M44.09,6.1562a7.3817,7.3817,0,0,0-10.42,0l-.256.256L36.95,9.9483l.26-.262a2.3659,2.3659,0,0,1,3.34,0,2.3781,2.3781,0,0,1,0,3.35l-7.1336,7.1378L36.952,23.71l7.138-7.1437A7.37,7.37,0,0,0,44.09,6.1562Z"/><rect height="4.9952" transform="translate(-15.2678 27.1276) rotate(-44.9837)" width="10.4533" x="19.8985" y="29.5035"/><polygon points="33.936 44.342 33.937 44.34 37.464 40.804 37.466 40.802 30.074 33.41 26.546 36.948 26.544 36.95 33.936 44.342"/><rect height="5.0033" transform="translate(-11.2384 36.8495) rotate(-44.9837)" width="10.4532" x="33.6535" y="29.4945"/><path d="M16.57,19.9062a7.3645,7.3645,0,0,0-10.41,10.42l.2566.2566,3.5365-3.5335-.2631-.263a2.3653,2.3653,0,0,1,3.35-3.34l7.1358,7.1357,3.5374-3.5326Z"/><rect height="4.9952" transform="translate(-5.5399 23.1069) rotate(-44.9965)" width="10.453" x="19.8984" y="15.7437"/><path d="M6.16,33.6663a7.3645,7.3645,0,0,0,10.41,10.42l.2615-.26L13.2959,40.29l-.2559.256a2.3653,2.3653,0,0,1-3.35-3.34l7.1436-7.1377-3.5358-3.5358Z"/><polygon points="23.707 40.804 16.314 33.411 16.312 33.413 12.786 36.948 12.784 36.95 20.176 44.342 20.18 44.338 23.707 40.804"/><path d="M27.0515,54.0463l-.2615.26a2.3653,2.3653,0,1,1-3.34-3.35l7.1394-7.1351-3.535-3.5336L19.91,47.4263a7.3645,7.3645,0,1,0,10.42,10.41l.2559-.2559Z"/><path d="M57.84,19.9062a7.37,7.37,0,0,0-10.41,0l-.26.2616,3.5341,3.5344.2559-.2559a2.3653,2.3653,0,1,1,3.35,3.34L47.1724,33.93l3.5344,3.5341L57.84,30.3262A7.3815,7.3815,0,0,0,57.84,19.9062Z"/><rect height="5.0034" transform="translate(-20.9683 40.911) rotate(-45.0163)" width="10.4542" x="33.6529" y="43.2546"/><path d="M44.09,47.4263l-.2557-.2557-3.54,3.53.2558.2558a2.3653,2.3653,0,0,1-3.34,3.35l-7.1356-7.1356-3.5381,3.5319L33.67,57.8362a7.3645,7.3645,0,0,0,10.42-10.41Z"/></svg>