<?xml version="1.0" ?><!DOCTYPE svg  PUBLIC '-//W3C//DTD SVG 1.1//EN'  'http://www.w3.org/Graphics/SVG/1.1/DTD/svg11.dtd'><svg height="43.3492mm" style="shape-rendering:geometricPrecision; text-rendering:geometricPrecision; image-rendering:optimizeQuality; fill-rule:evenodd; clip-rule:evenodd" version="1.1" viewBox="0 0 4335 4335" width="43.3492mm" xml:space="preserve" xmlns="http://www.w3.org/2000/svg" xmlns:xlink="http://www.w3.org/1999/xlink"><defs><style type="text/css">
   <![CDATA[
    .fil0 {fill:inherit;}
   ]]>
  </style></defs><g id="Layer_x0020_1"><path class="fil0" d="M587 1652c264,0 478,214 478,478 0,264 -214,478 -478,478 -264,0 -478,-214 -478,-478 0,-264 214,-478 478,-478zm1588 0c264,0 478,214 478,478 0,264 -214,478 -478,478 -264,0 -478,-214 -478,-478 0,-264 214,-478 478,-478zm1588 0c264,0 478,214 478,478 0,264 -214,478 -478,478 -264,0 -478,-214 -478,-478 0,-264 214,-478 478,-478z"/></g></svg>
