<?xml version="1.0" ?><svg viewBox="0 0 32 32" xmlns="http://www.w3.org/2000/svg"><defs><style>.cls-1{fill:#101820;}</style></defs><title/><g data-name="10-drive-now" id="_10-drive-now"><path class="cls-1" d="M16,30A14,14,0,1,1,30,16,14,14,0,0,1,16,30ZM16,4A12,12,0,1,0,28,16,12,12,0,0,0,16,4Z"/><path class="cls-1" d="M23,23a1,1,0,0,1-.5-.13L16,19.15,9.5,22.87a1,1,0,0,1-1.4-1.29l7-15a1,1,0,0,1,1.81,0l7,15A1,1,0,0,1,23,23Zm-7-6a1,1,0,0,1,.5.13l4.27,2.44L16,9.36l-4.76,10.2,4.27-2.44A1,1,0,0,1,16,17Z"/></g></svg>