<?xml version="1.0" ?><svg style="enable-background:new 0 0 44 44;" version="1.1" viewBox="0 0 44 44" xml:space="preserve" xmlns="http://www.w3.org/2000/svg" xmlns:xlink="http://www.w3.org/1999/xlink"><style type="text/css">
	.st0{fill:#231F20;}
</style><g id="Layer_21"/><g id="Layer_20"><g><path d="M25,21c0.3,0,0.5-0.1,0.7-0.3l8-8c0.4-0.4,0.4-1,0-1.4s-1-0.4-1.4,0L28,15.6c-0.6-0.9-1-1.9-1-2.9c0-1.4,0.7-2.8,2-4.1    c2.2-2.1,8.3-3.7,11.8-4.4c-0.7,3.4-2.3,9.5-4.4,11.7c-1.7,1.7-3.4,2.4-5.1,2c-0.5-0.1-1.1,0.2-1.2,0.8c-0.1,0.5,0.2,1.1,0.8,1.2    c0.4,0.1,0.9,0.1,1.3,0.1c1.5,0,3.5-0.6,5.6-2.7c3.5-3.4,5.2-13.7,5.2-14.2c0.1-0.3-0.1-0.6-0.3-0.9C42.5,2.1,42.2,2,41.8,2    C41.4,2.1,31,3.8,27.6,7.2c-1.7,1.7-2.6,3.6-2.6,5.6c0,1.5,0.6,3,1.5,4.3l-2.2,2.2c-0.4,0.4-0.4,1,0,1.4C24.5,20.9,24.7,21,25,21z    "/><path d="M12.4,13.3c0.7,0.7,1.5,1.2,2.3,1.5c0.1,0,0.2,0,0.3,0c0.4,0,0.8-0.3,1-0.7c0.2-0.5-0.1-1.1-0.6-1.3c-0.5-0.2-1-0.5-1.5-1    c-1.2-1.2-2.1-4.4-2.5-6.6c2.1,0.5,5.4,1.4,6.5,2.5c1.2,1.2,1.5,2.4,0.9,3.5l-1-1c-0.4-0.4-1-0.4-1.4,0c-0.4,0.4-0.4,1,0,1.4l4,4    c0.2,0.2,0.5,0.3,0.7,0.3s0.5-0.1,0.7-0.3c0.4-0.4,0.4-1,0-1.4l-1.6-1.6c1.4-2,1.1-4.3-0.9-6.3C17,4.2,10.9,3.1,10.2,3    C9.8,3,9.5,3.1,9.3,3.3C9.1,3.5,9,3.8,9,4.2C9.1,4.9,10.2,11.1,12.4,13.3z"/><path d="M43.7,27.3c-2.1-2.1-5.3-2.5-7.8-1.1l-4.2,2c-1.1,0.5-2.4,0.8-3.7,0.9c0.6-0.8,1-1.9,1-3c0-1.1-0.9-2-2-2H16.6    c-2.6,0-5.1,1.1-6.8,3.1l-3.5,4C5.8,30.4,4.9,30,4,30H1c-0.6,0-1,0.4-1,1s0.4,1,1,1h3c0.6,0,1,0.4,1,1v6c0,0.6-0.4,1-1,1H1    c-0.6,0-1,0.4-1,1s0.4,1,1,1h3c1.3,0,2.4-0.8,2.8-2h5.5c0.5,0,1,0,1.4-0.1l14.1-1.6c2.3-0.3,4.5-1.1,6.4-2.5l9.4-7    c0.2-0.2,0.4-0.4,0.4-0.7S43.9,27.5,43.7,27.3z M33,34.2c-1.6,1.2-3.4,1.9-5.4,2.1l-14.1,1.6c-0.4,0-0.8,0.1-1.2,0.1H7v-4.6l4.4-5    c1.3-1.5,3.2-2.4,5.3-2.4H27c0,1.7-1.3,3-3,3h-1h-5c-0.6,0-1,0.4-1,1s0.4,1,1,1h5h1h3.7c1.7,0,3.3-0.4,4.8-1.1l4.3-2    c1.4-0.8,3.2-0.8,4.6,0.1L33,34.2z"/></g></g><g id="Layer_19"/><g id="Layer_18"/><g id="Layer_17"/><g id="Layer_16"/><g id="Layer_15"/><g id="Layer_14"/><g id="Layer_13"/><g id="Layer_12"/><g id="Layer_11"/><g id="Layer_10"/><g id="Layer_9"/><g id="Layer_8"/><g id="Layer_7"/><g id="Layer_6"/><g id="Layer_5"/><g id="Layer_4"/><g id="Layer_3"/><g id="Layer_2"/></svg>