<?xml version="1.0" ?><svg viewBox="0 0 32 32" xmlns="http://www.w3.org/2000/svg"><defs><style>.cls-1{fill:#101820;}</style></defs><title/><g data-name="14-friend" id="_14-friend"><path class="cls-1" d="M11,28H3a1,1,0,0,1-1-1V23a8,8,0,0,1,8-8,1,1,0,0,1,0,2,6,6,0,0,0-6,6v3h7a1,1,0,0,1,0,2Z"/><path class="cls-1" d="M29,28H15a1,1,0,0,1-1-1V23a8,8,0,0,1,16,0v4A1,1,0,0,1,29,28ZM16,26H28V23a6,6,0,0,0-12,0Z"/><path class="cls-1" d="M22,14a5,5,0,1,1,5-5A5,5,0,0,1,22,14Zm0-8a3,3,0,1,0,3,3A3,3,0,0,0,22,6Z"/><path class="cls-1" d="M10,14a5,5,0,1,1,5-5A5,5,0,0,1,10,14Zm0-8a3,3,0,1,0,3,3A3,3,0,0,0,10,6Z"/><path class="cls-1" d="M13,17H10a1,1,0,0,1,0-2h3a1,1,0,0,1,0,2Z"/></g></svg>