<svg viewBox="210.00000000000023 150 2130 1320.0000000000005" fill="none" xmlns="http://www.w3.org/2000/svg" xmlns:xlink="http://www.w3.org/1999/xlink" overflow="visible"><g id="Master/Backgrounds/User Interface"><g id="Big Plants" transform="matrix(-1 0 0 1 1064 49) scale(1 1)"><g id="Big Plants/5"><g id="Plant 2"><path id="Fill 1" fill-rule="evenodd" clip-rule="evenodd" d="M370.958 1338.61C447.375 1283.59 437.563 1299.53 532.641 1300.74C627.723 1301.93 609.383 1202.59 587.983 1176.6C566.587 1150.62 577.287 1100.19 638.423 1113.94C699.555 1127.7 765.276 1126.17 740.821 1052.81C716.37 979.446 763.084 971.006 806.542 901.503C850 832 831.206 792.64 793 785C754.789 777.359 716.37 818.971 684.27 817.441C652.179 815.916 636.894 759.538 598.687 766.327C560.477 773.116 560.164 796.046 532.806 857.182C505.455 918.314 474.885 913.729 436.675 899.973C398.468 886.218 361.788 904.558 341.918 958.05C322.047 1011.55 200.215 1228.36 242.793 1317.88C242.793 1317.88 294.541 1393.64 370.958 1338.61Z" fill="#20092f"/><path id="Stroke 4" d="M704.541 876.405C705.389 877.756 705.028 879.523 703.747 880.439L703.519 880.588L702.228 881.408C701.344 881.973 700.336 882.622 699.206 883.355L698.207 884.003C693.797 886.873 688.679 890.268 682.911 894.172L680.424 895.86C665.001 906.354 647.982 918.413 629.742 931.931L628.26 933.03C571.714 975.03 515.168 1022.24 462.402 1073.58C366.212 1167.17 293.619 1263.74 254.182 1360.51C253.557 1362.05 251.806 1362.78 250.272 1362.16C248.737 1361.53 248 1359.78 248.626 1358.25C288.422 1260.59 361.486 1163.4 458.217 1069.28C511.19 1017.74 567.936 970.362 624.683 928.213L627.651 926.013C645.892 912.525 662.9 900.501 678.302 890.048L682.113 887.472C686.034 884.832 689.633 882.442 692.889 880.31L695.943 878.319C696.758 877.791 697.511 877.305 698.201 876.862L700.405 875.459C701.808 874.578 703.66 875.001 704.541 876.405Z" fill="#ffffff"/><path id="Fill 6" fill-rule="evenodd" clip-rule="evenodd" d="M298.999 1257.12C298.999 1257.12 401.397 1029.57 500.743 875.882C600.09 722.193 587.86 563.244 464.063 547.959C340.265 532.679 233.282 806.251 298.999 1257.12" fill="#ad76d2"/><path id="Stroke 9" d="M436.136 650.784C437.537 651.546 438.088 653.264 437.419 654.69L437.267 654.981L436.356 656.695L435.324 658.669C434.463 660.33 433.514 662.188 432.482 664.239L431.531 666.137C427.046 675.125 422.064 685.607 416.703 697.503L416.147 698.738C400.219 734.203 384.288 774.635 369.417 819.32C348.733 881.476 331.808 946.826 319.955 1014.49C305.837 1095.08 299.414 1176.22 301.998 1257.03C302.051 1258.69 300.751 1260.07 299.095 1260.12C297.439 1260.18 296.054 1258.88 296.001 1257.22C293.404 1175.98 299.859 1094.43 314.045 1013.45C325.951 945.486 342.95 879.851 363.724 817.426C378.412 773.29 394.133 733.278 409.874 698.066L410.674 696.28C415.719 685.046 420.442 675.037 424.744 666.317L426.162 663.458C427.473 660.831 428.667 658.482 429.735 656.416L430.512 654.919C430.827 654.316 431.113 653.772 431.37 653.288L432.067 651.984C432.859 650.529 434.681 649.991 436.136 650.784Z" fill="#20092f"/></g></g></g><g id="Object" transform="translate(1684.59 52.4185) scale(1 1)"><g id="Object/Open Window"><g id="Border Box"><path id="Path" fill-rule="evenodd" clip-rule="evenodd" d="M601.746 541.007H43.885C30.163 541.007 19 529.843 19 516.121V133.886C19 120.164 30.163 109 43.885 109H601.746C615.468 109 626.632 120.164 626.632 133.886V516.121C626.632 529.843 615.468 541.007 601.746 541.007V541.007Z" fill="#ffffff"/><path id="Fill 1" fill-rule="evenodd" clip-rule="evenodd" d="M43.885 113C32.369 113 23 122.369 23 133.886V516.121C23 527.638 32.369 537.007 43.885 537.007H601.746C613.262 537.007 622.632 527.638 622.632 516.121V133.886C622.632 122.369 613.262 113 601.746 113H43.885ZM601.746 541.007H43.885C30.163 541.007 19 529.843 19 516.121V133.886C19 120.164 30.163 109 43.885 109H601.746C615.468 109 626.632 120.164 626.632 133.886V516.121C626.632 529.843 615.468 541.007 601.746 541.007V541.007Z" fill="#20092f"/><path id="Fill 18" fill-rule="evenodd" clip-rule="evenodd" d="M623.697 190.62H21.0039C19.8999 190.62 19.0039 189.724 19.0039 188.62C19.0039 187.516 19.8999 186.62 21.0039 186.62H623.697C624.801 186.62 625.697 187.516 625.697 188.62C625.697 189.724 624.801 190.62 623.697 190.62" fill="#20092f"/></g><g id="Button"><path id="Fill 8" fill-rule="evenodd" clip-rule="evenodd" d="M100.207 140.355C95.1798 140.355 91.0898 144.445 91.0898 149.472C91.0898 154.5 95.1798 158.589 100.207 158.589C105.234 158.589 109.324 154.5 109.324 149.472C109.324 144.445 105.234 140.355 100.207 140.355M100.207 162.589C92.9738 162.589 87.0898 156.705 87.0898 149.472C87.0898 142.239 92.9738 136.355 100.207 136.355C107.44 136.355 113.324 142.239 113.324 149.472C113.324 156.705 107.44 162.589 100.207 162.589" fill="#20092f"/><path id="Fill 14" fill-rule="evenodd" clip-rule="evenodd" d="M138.052 140.355C133.025 140.355 128.934 144.445 128.934 149.472C128.934 154.5 133.025 158.589 138.052 158.589C143.079 158.589 147.169 154.5 147.169 149.472C147.169 144.445 143.079 140.355 138.052 140.355M138.052 162.589C130.819 162.589 124.934 156.705 124.934 149.472C124.934 142.239 130.819 136.355 138.052 136.355C145.285 136.355 151.169 142.239 151.169 149.472C151.169 156.705 145.285 162.589 138.052 162.589" fill="#20092f"/><g id="Active"><path id="Fill 4" fill-rule="evenodd" clip-rule="evenodd" d="M73.4762 149.472C73.4762 155.612 68.4982 160.589 62.3592 160.589C56.2192 160.589 51.2422 155.612 51.2422 149.472C51.2422 143.332 56.2192 138.355 62.3592 138.355C68.4982 138.355 73.4762 143.332 73.4762 149.472" fill="#ad76d2"/><path id="Fill 6" fill-rule="evenodd" clip-rule="evenodd" d="M62.3592 140.355C57.3322 140.355 53.2422 144.445 53.2422 149.472C53.2422 154.5 57.3322 158.589 62.3592 158.589C67.3862 158.589 71.4762 154.5 71.4762 149.472C71.4762 144.445 67.3862 140.355 62.3592 140.355M62.3592 162.589C55.1262 162.589 49.2422 156.705 49.2422 149.472C49.2422 142.239 55.1262 136.355 62.3592 136.355C69.5922 136.355 75.4762 142.239 75.4762 149.472C75.4762 156.705 69.5922 162.589 62.3592 162.589" fill="#20092f"/></g></g><path id="Circle" fill-rule="evenodd" clip-rule="evenodd" d="M541.488 324.353C541.488 367.016 506.903 401.601 464.24 401.601C421.577 401.601 386.992 367.016 386.992 324.353C386.992 281.69 421.577 247.105 464.24 247.105C506.903 247.105 541.488 281.69 541.488 324.353" fill="#ad76d2"/><path id="Fill 12" fill-rule="evenodd" clip-rule="evenodd" d="M296.511 415.246H459.914L378.213 273.735L296.511 415.246ZM463.379 419.246H293.047C292.333 419.246 291.672 418.865 291.315 418.246C290.958 417.627 290.958 416.865 291.315 416.246L376.481 268.735C376.838 268.116 377.498 267.735 378.213 267.735C378.927 267.735 379.588 268.116 379.945 268.735L465.111 416.246C465.468 416.865 465.468 417.627 465.111 418.246C464.754 418.865 464.093 419.246 463.379 419.246V419.246Z" fill="#20092f"/></g></g><g id="Object" transform="translate(148 0) scale(1 1)"><g id="Object/Chat"><g id="bubble"><path id="Stroke 1" fill-rule="evenodd" clip-rule="evenodd" d="M280.5 333.193C280.5 286.606 324.915 249.061 379.479 249.061C434.043 249.061 478.458 286.606 478.458 333.193C478.458 361.426 461.987 387.202 435.188 402.731L435.104 402.778L435.131 403.809C435.56 418.474 438.289 428.417 443.16 430.843L443.504 431.008C446.144 432.382 445.352 436.441 442.308 436.653C429.514 437.542 419.125 434.693 410.992 428.934C405.763 425.23 401.871 420.646 399.111 415.75L399.056 415.653L398.72 415.713C392.804 416.708 386.81 417.249 380.773 417.316L379.479 417.324C324.915 417.324 280.5 379.78 280.5 333.193ZM472.458 333.193C472.458 290.164 430.932 255.061 379.479 255.061C328.026 255.061 286.5 290.164 286.5 333.193C286.5 376.222 328.026 411.324 379.479 411.324C386.436 411.324 393.338 410.66 400.127 409.365C401.454 409.112 402.787 409.777 403.382 410.99C405.761 415.835 409.376 420.437 414.46 424.037C419.869 427.868 426.489 430.215 434.498 430.713L434.704 430.725L434.478 430.352C430.824 424.199 429.248 414.349 429.085 401.672L429.078 401.074C429.068 399.974 429.66 398.956 430.622 398.423C456.576 384.017 472.458 359.707 472.458 333.193Z" fill="#20092f"/><path id="Fill 3" fill-rule="evenodd" clip-rule="evenodd" d="M349.684 335.305C349.684 340.983 345.082 345.585 339.405 345.585C333.727 345.585 329.125 340.983 329.125 335.305C329.125 329.628 333.727 325.026 339.405 325.026C345.082 325.026 349.684 329.628 349.684 335.305" fill="#20092f"/><path id="Fill 5" fill-rule="evenodd" clip-rule="evenodd" d="M390.024 335.305C390.024 340.983 385.422 345.585 379.744 345.585C374.067 345.585 369.465 340.983 369.465 335.305C369.465 329.628 374.067 325.026 379.744 325.026C385.422 325.026 390.024 329.628 390.024 335.305" fill="#20092f"/><path id="Fill 7" fill-rule="evenodd" clip-rule="evenodd" d="M430.36 335.305C430.36 340.983 425.758 345.585 420.08 345.585C414.403 345.585 409.801 340.983 409.801 335.305C409.801 329.628 414.403 325.026 420.08 325.026C425.758 325.026 430.36 329.628 430.36 335.305" fill="#20092f"/><path id="Fill 9" fill-rule="evenodd" clip-rule="evenodd" d="M137 302.416C137 257.608 179.97 221.284 232.979 221.284C285.987 221.284 328.958 257.608 328.958 302.416C328.958 347.224 285.987 383.546 232.979 383.546C225.687 383.546 218.595 382.837 211.769 381.535C208.101 389.005 197.141 404.743 170.359 402.883C178.19 399.32 180.25 384.26 180.38 370.268C154.261 355.769 137 330.803 137 302.416" fill="#ad76d2"/><path id="Fill 11" fill-rule="evenodd" clip-rule="evenodd" d="M202.051 306.179C202.051 311.857 197.449 316.459 191.772 316.459C186.094 316.459 181.492 311.857 181.492 306.179C181.492 300.502 186.094 295.9 191.772 295.9C197.449 295.9 202.051 300.502 202.051 306.179" fill="#ffffff"/><path id="Fill 13" fill-rule="evenodd" clip-rule="evenodd" d="M242.387 306.179C242.387 311.857 237.785 316.459 232.108 316.459C226.43 316.459 221.828 311.857 221.828 306.179C221.828 300.502 226.43 295.9 232.108 295.9C237.785 295.9 242.387 300.502 242.387 306.179" fill="#ffffff"/><path id="Fill 15" fill-rule="evenodd" clip-rule="evenodd" d="M282.727 306.179C282.727 311.857 278.125 316.459 272.447 316.459C266.77 316.459 262.168 311.857 262.168 306.179C262.168 300.502 266.77 295.9 272.447 295.9C278.125 295.9 282.727 300.502 282.727 306.179" fill="#ffffff"/><path id="Stroke 17" d="M460.89 215.695C461.473 214.144 463.203 213.359 464.754 213.942C466.25 214.504 467.033 216.132 466.564 217.639L466.507 217.806L456.688 243.937C456.105 245.488 454.375 246.273 452.824 245.69C451.329 245.128 450.546 243.5 451.014 241.993L451.071 241.827L460.89 215.695Z" fill="#20092f"/><path id="Stroke 19" d="M492.359 238.905C493.64 237.854 495.531 238.041 496.581 239.322C497.592 240.553 497.458 242.349 496.307 243.419L496.164 243.544L475.106 260.816C473.825 261.867 471.934 261.68 470.884 260.399C469.873 259.167 470.007 257.372 471.158 256.302L471.301 256.177L492.359 238.905Z" fill="#20092f"/><path id="Stroke 21" d="M508.282 274.056C509.922 273.822 511.442 274.962 511.676 276.602C511.902 278.183 510.85 279.653 509.304 279.966L509.13 279.996L484.932 283.45C483.292 283.684 481.772 282.544 481.538 280.904C481.313 279.323 482.364 277.853 483.91 277.54L484.084 277.51L508.282 274.056Z" fill="#20092f"/></g></g></g><g id="Plant" transform="translate(1570 555) scale(1 1)"><g id="Plant/Plant 2"><g id="Group"><g id="Leaf 2"><path id="Fill 1" fill-rule="evenodd" clip-rule="evenodd" d="M275.713 753.87C275.713 753.87 218.04 665.056 273.065 584.394C312.203 527.02 357.425 520.084 366.42 515.14C420.309 485.518 385.138 673.208 275.713 753.87" fill="#ad76d2"/><path id="Fill 4" fill-rule="evenodd" clip-rule="evenodd" d="M271.191 853.385C270.544 853.385 269.911 853.073 269.525 852.495C268.097 850.354 267.565 814.568 273.116 768.82C278.331 725.841 290.362 662.298 318.058 603.646C318.531 602.648 319.722 602.224 320.721 602.692C321.719 603.164 322.147 604.356 321.675 605.355C294.549 662.798 282.599 725.045 277.352 767.148C271.426 814.69 272.45 847.775 273.039 850.624C273.396 851.488 273.106 852.511 272.298 853.049C271.957 853.277 271.572 853.385 271.191 853.385" fill="#20092f"/></g><path id="Leaf 2_2" fill-rule="evenodd" clip-rule="evenodd" d="M209.847 792.443C236.659 785.53 244.575 723.123 209.862 672.237C184.975 635.754 159.773 627.248 148.2 628.733C121.409 632.169 128.263 805.698 205.932 793.224C206.345 795.904 206.706 798.456 207.021 800.876C210.96 831.11 208.96 848.761 208.486 850.578C208.099 851.451 208.385 852.503 209.207 853.049C209.548 853.277 209.933 853.385 210.314 853.385C210.961 853.385 211.595 853.073 211.98 852.495C213.069 850.86 215.532 829.171 209.847 792.443Z" fill="#20092f"/><g id="Leaf 1"><path id="Assets 97" fill-rule="evenodd" clip-rule="evenodd" d="M433.37 792.597C406.044 786.523 397.723 723.528 432.712 672.237C457.599 635.754 482.801 627.248 494.374 628.733C521.536 632.216 514.114 810.543 433.37 792.597" fill="#ad76d2"/><path id="Path" fill-rule="evenodd" clip-rule="evenodd" d="M436.349 853.385C436.73 853.385 437.115 853.277 437.456 853.049C438.278 852.503 438.564 851.451 438.177 850.578C437.703 848.761 435.703 831.11 439.642 800.876C443.198 773.589 452.536 729.526 476.837 674.559C477.283 673.549 476.827 672.368 475.817 671.922C474.81 671.474 473.626 671.931 473.179 672.942C426.103 779.423 432.692 849.505 434.683 852.495C435.068 853.073 435.702 853.385 436.349 853.385V853.385Z" fill="#20092f"/></g></g></g></g><g id="Screen" transform="translate(557 548.5) scale(1 1)"><g id="Screen/Information"><g id="Info Cards"><g id="Info Card"><path id="Bg" fill-rule="evenodd" clip-rule="evenodd" d="M134.809 187.348H591.074V1.80957H134.809V187.348Z" fill="#ffffff"/><path id="Border" fill-rule="evenodd" clip-rule="evenodd" d="M134.807 0H591.073C592.071 0 592.881 0.810151 592.881 1.80952V187.348C592.881 188.348 592.071 189.158 591.073 189.158H134.807C133.809 189.158 133 188.348 133 187.348V1.80952C133 0.810151 133.809 0 134.807 0ZM589.266 185.538V3.61814H136.615V185.538H589.266Z" fill="#20092f"/><path id="Place Holder" fill-rule="evenodd" clip-rule="evenodd" d="M173.582 147.454H283.788V37.9774H173.582V147.454Z" fill="#ad76d2"/><path id="Text" fill-rule="evenodd" clip-rule="evenodd" d="M516.029 50.3842C520.022 50.3842 523.259 53.6248 523.259 57.6223C523.259 61.5443 520.143 64.7378 516.255 64.8569L516.029 64.8603H312.468C308.475 64.8603 305.238 61.6197 305.238 57.6223C305.238 53.7002 308.354 50.5067 312.243 50.3876L312.468 50.3842H516.029ZM467.855 86.845C471.848 86.845 475.085 90.0856 475.085 94.0831C475.085 98.0051 471.969 101.199 468.08 101.318L467.855 101.321H312.468C308.475 101.321 305.238 98.0806 305.238 94.0831C305.238 90.161 308.354 86.9675 312.243 86.8484L312.468 86.845H467.855ZM427.881 130.544C427.881 126.546 424.644 123.306 420.651 123.306H312.468L312.243 123.309C308.354 123.428 305.238 126.622 305.238 130.544C305.238 134.541 308.475 137.782 312.468 137.782H420.651L420.876 137.779C424.765 137.659 427.881 134.466 427.881 130.544Z" fill="#eadbf3"/></g><g id="Info Card 2"><path id="Bg_2" fill-rule="evenodd" clip-rule="evenodd" d="M134.809 420.348H591.074V234.81H134.809V420.348Z" fill="#ffffff"/><path id="Border_2" fill-rule="evenodd" clip-rule="evenodd" d="M134.807 233H591.073C592.071 233 592.881 233.81 592.881 234.81V420.348C592.881 421.348 592.071 422.158 591.073 422.158H134.807C133.809 422.158 133 421.348 133 420.348V234.81C133 233.81 133.809 233 134.807 233ZM589.266 418.538V236.618H136.615V418.538H589.266Z" fill="#20092f"/><path id="Place Holder_2" fill-rule="evenodd" clip-rule="evenodd" d="M173.582 380.454H283.788V270.977H173.582V380.454Z" fill="#d2b4e6"/><path id="Text_2" fill-rule="evenodd" clip-rule="evenodd" d="M516.029 283.384C520.022 283.384 523.259 286.625 523.259 290.622C523.259 294.544 520.143 297.738 516.255 297.857L516.029 297.86H312.468C308.475 297.86 305.238 294.62 305.238 290.622C305.238 286.7 308.354 283.507 312.243 283.388L312.468 283.384H516.029ZM467.855 319.845C471.848 319.845 475.085 323.086 475.085 327.083C475.085 331.005 471.969 334.199 468.08 334.318L467.855 334.321H312.468C308.475 334.321 305.238 331.081 305.238 327.083C305.238 323.161 308.354 319.968 312.243 319.848L312.468 319.845H467.855ZM427.881 363.544C427.881 359.546 424.644 356.306 420.651 356.306H312.468L312.243 356.309C308.354 356.428 305.238 359.622 305.238 363.544C305.238 367.541 308.475 370.782 312.468 370.782H420.651L420.876 370.779C424.765 370.659 427.881 367.466 427.881 363.544Z" fill="#eadbf3"/></g><g id="Info Card 3" opacity="0.553153"><path id="Bg_3" fill-rule="evenodd" clip-rule="evenodd" d="M134.809 653.348H591.074V467.81H134.809V653.348Z" fill="#ffffff"/><path id="Border_3" fill-rule="evenodd" clip-rule="evenodd" d="M134.807 466H591.073C592.071 466 592.881 466.81 592.881 467.81V653.348C592.881 654.348 592.071 655.158 591.073 655.158H134.807C133.809 655.158 133 654.348 133 653.348V467.81C133 466.81 133.809 466 134.807 466ZM589.266 651.538V469.618H136.615V651.538H589.266Z" fill="#20092f"/><path id="Place Holder_3" fill-rule="evenodd" clip-rule="evenodd" d="M173.582 613.454H283.788V503.977H173.582V613.454Z" fill="#c39ade"/><path id="Text_3" fill-rule="evenodd" clip-rule="evenodd" d="M516.029 516.384C520.022 516.384 523.259 519.625 523.259 523.622C523.259 527.544 520.143 530.738 516.255 530.857L516.029 530.86H312.468C308.475 530.86 305.238 527.62 305.238 523.622C305.238 519.7 308.354 516.507 312.243 516.388L312.468 516.384H516.029ZM467.855 552.845C471.848 552.845 475.085 556.086 475.085 560.083C475.085 564.005 471.969 567.199 468.08 567.318L467.855 567.321H312.468C308.475 567.321 305.238 564.081 305.238 560.083C305.238 556.161 308.354 552.968 312.243 552.848L312.468 552.845H467.855ZM427.881 596.544C427.881 592.546 424.644 589.306 420.651 589.306H312.468L312.243 589.309C308.354 589.428 305.238 592.622 305.238 596.544C305.238 600.541 308.475 603.782 312.468 603.782H420.651L420.876 603.779C424.765 603.659 427.881 600.466 427.881 596.544Z" fill="#eadbf3"/></g><g id="Info Card 4" opacity="0.162202"><path id="Bg_4" fill-rule="evenodd" clip-rule="evenodd" d="M134.809 886.348H591.074V700.81H134.809V886.348Z" fill="#ffffff"/><path id="Border_4" fill-rule="evenodd" clip-rule="evenodd" d="M134.807 699H591.073C592.071 699 592.881 699.81 592.881 700.81V886.348C592.881 887.348 592.071 888.158 591.073 888.158H134.807C133.809 888.158 133 887.348 133 886.348V700.81C133 699.81 133.809 699 134.807 699ZM589.266 884.538V702.618H136.615V884.538H589.266Z" fill="#20092f"/><path id="Place Holder_4" fill-rule="evenodd" clip-rule="evenodd" d="M173.582 846.454H283.788V736.977H173.582V846.454Z" fill="#dec7ed"/><path id="Text_4" fill-rule="evenodd" clip-rule="evenodd" d="M516.029 749.384C520.022 749.384 523.259 752.625 523.259 756.622C523.259 760.544 520.143 763.738 516.255 763.857L516.029 763.86H312.468C308.475 763.86 305.238 760.62 305.238 756.622C305.238 752.7 308.354 749.507 312.243 749.388L312.468 749.384H516.029ZM467.855 785.845C471.848 785.845 475.085 789.086 475.085 793.083C475.085 797.005 471.969 800.199 468.08 800.318L467.855 800.321H312.468C308.475 800.321 305.238 797.081 305.238 793.083C305.238 789.161 308.354 785.968 312.243 785.848L312.468 785.845H467.855ZM427.881 829.544C427.881 825.546 424.644 822.306 420.651 822.306H312.468L312.243 822.309C308.354 822.428 305.238 825.622 305.238 829.544C305.238 833.541 308.475 836.782 312.468 836.782H420.651L420.876 836.779C424.765 836.659 427.881 833.466 427.881 829.544Z" fill="#eadbf3"/></g></g><g id="Info Cards_2"><g id="Info Card_2"><path id="Bg_5" fill-rule="evenodd" clip-rule="evenodd" d="M696.809 187.348H1153.07V1.80957H696.809V187.348Z" fill="#ffffff"/><path id="Border_5" fill-rule="evenodd" clip-rule="evenodd" d="M696.807 0H1153.07C1154.07 0 1154.88 0.810151 1154.88 1.80952V187.348C1154.88 188.348 1154.07 189.158 1153.07 189.158H696.807C695.809 189.158 695 188.348 695 187.348V1.80952C695 0.810151 695.809 0 696.807 0ZM1151.27 185.538V3.61814H698.615V185.538H1151.27Z" fill="#20092f"/><path id="Place Holder_5" fill-rule="evenodd" clip-rule="evenodd" d="M735.582 147.454H845.788V37.9774H735.582V147.454Z" fill="#dec7ed"/><path id="Text_5" fill-rule="evenodd" clip-rule="evenodd" d="M1078.03 50.3842C1082.02 50.3842 1085.26 53.6248 1085.26 57.6223C1085.26 61.5443 1082.14 64.7378 1078.25 64.8569L1078.03 64.8603H874.468C870.475 64.8603 867.238 61.6197 867.238 57.6223C867.238 53.7002 870.354 50.5067 874.243 50.3876L874.468 50.3842H1078.03ZM1029.86 86.845C1033.85 86.845 1037.08 90.0856 1037.08 94.0831C1037.08 98.0051 1033.97 101.199 1030.08 101.318L1029.86 101.321H874.468C870.475 101.321 867.238 98.0806 867.238 94.0831C867.238 90.161 870.354 86.9675 874.243 86.8484L874.468 86.845H1029.86ZM989.881 130.544C989.881 126.546 986.644 123.306 982.651 123.306H874.468L874.243 123.309C870.354 123.428 867.238 126.622 867.238 130.544C867.238 134.541 870.475 137.782 874.468 137.782H982.651L982.876 137.779C986.765 137.659 989.881 134.466 989.881 130.544Z" fill="#eadbf3"/></g><g id="Info Card 2_2"><path id="Bg_6" fill-rule="evenodd" clip-rule="evenodd" d="M696.809 420.348H1153.07V234.81H696.809V420.348Z" fill="#ffffff"/><path id="Border_6" fill-rule="evenodd" clip-rule="evenodd" d="M696.807 233H1153.07C1154.07 233 1154.88 233.81 1154.88 234.81V420.348C1154.88 421.348 1154.07 422.158 1153.07 422.158H696.807C695.809 422.158 695 421.348 695 420.348V234.81C695 233.81 695.809 233 696.807 233ZM1151.27 418.538V236.618H698.615V418.538H1151.27Z" fill="#20092f"/><path id="Place Holder_6" fill-rule="evenodd" clip-rule="evenodd" d="M735.582 380.454H845.788V270.977H735.582V380.454Z" fill="#dec7ed"/><path id="Text_6" fill-rule="evenodd" clip-rule="evenodd" d="M1078.03 283.384C1082.02 283.384 1085.26 286.625 1085.26 290.622C1085.26 294.544 1082.14 297.738 1078.25 297.857L1078.03 297.86H874.468C870.475 297.86 867.238 294.62 867.238 290.622C867.238 286.7 870.354 283.507 874.243 283.388L874.468 283.384H1078.03ZM1029.86 319.845C1033.85 319.845 1037.08 323.086 1037.08 327.083C1037.08 331.005 1033.97 334.199 1030.08 334.318L1029.86 334.321H874.468C870.475 334.321 867.238 331.081 867.238 327.083C867.238 323.161 870.354 319.968 874.243 319.848L874.468 319.845H1029.86ZM989.881 363.544C989.881 359.546 986.644 356.306 982.651 356.306H874.468L874.243 356.309C870.354 356.428 867.238 359.622 867.238 363.544C867.238 367.541 870.475 370.782 874.468 370.782H982.651L982.876 370.779C986.765 370.659 989.881 367.466 989.881 363.544Z" fill="#eadbf3"/></g><g id="Info Card 3_2" opacity="0.553153"><path id="Bg_7" fill-rule="evenodd" clip-rule="evenodd" d="M696.809 653.348H1153.07V467.81H696.809V653.348Z" fill="#ffffff"/><path id="Border_7" fill-rule="evenodd" clip-rule="evenodd" d="M696.807 466H1153.07C1154.07 466 1154.88 466.81 1154.88 467.81V653.348C1154.88 654.348 1154.07 655.158 1153.07 655.158H696.807C695.809 655.158 695 654.348 695 653.348V467.81C695 466.81 695.809 466 696.807 466ZM1151.27 651.538V469.618H698.615V651.538H1151.27Z" fill="#20092f"/><path id="Place Holder_7" fill-rule="evenodd" clip-rule="evenodd" d="M735.582 613.454H845.788V503.977H735.582V613.454Z" fill="#dec7ed"/><path id="Text_7" fill-rule="evenodd" clip-rule="evenodd" d="M1078.03 516.384C1082.02 516.384 1085.26 519.625 1085.26 523.622C1085.26 527.544 1082.14 530.738 1078.25 530.857L1078.03 530.86H874.468C870.475 530.86 867.238 527.62 867.238 523.622C867.238 519.7 870.354 516.507 874.243 516.388L874.468 516.384H1078.03ZM1029.86 552.845C1033.85 552.845 1037.08 556.086 1037.08 560.083C1037.08 564.005 1033.97 567.199 1030.08 567.318L1029.86 567.321H874.468C870.475 567.321 867.238 564.081 867.238 560.083C867.238 556.161 870.354 552.968 874.243 552.848L874.468 552.845H1029.86ZM989.881 596.544C989.881 592.546 986.644 589.306 982.651 589.306H874.468L874.243 589.309C870.354 589.428 867.238 592.622 867.238 596.544C867.238 600.541 870.475 603.782 874.468 603.782H982.651L982.876 603.779C986.765 603.659 989.881 600.466 989.881 596.544Z" fill="#eadbf3"/></g><g id="Info Card 4_2" opacity="0.162202"><path id="Bg_8" fill-rule="evenodd" clip-rule="evenodd" d="M696.809 886.348H1153.07V700.81H696.809V886.348Z" fill="#ffffff"/><path id="Border_8" fill-rule="evenodd" clip-rule="evenodd" d="M696.807 699H1153.07C1154.07 699 1154.88 699.81 1154.88 700.81V886.348C1154.88 887.348 1154.07 888.158 1153.07 888.158H696.807C695.809 888.158 695 887.348 695 886.348V700.81C695 699.81 695.809 699 696.807 699ZM1151.27 884.538V702.618H698.615V884.538H1151.27Z" fill="#20092f"/><path id="Place Holder_8" fill-rule="evenodd" clip-rule="evenodd" d="M735.582 846.454H845.788V736.977H735.582V846.454Z" fill="#dec7ed"/><path id="Text_8" fill-rule="evenodd" clip-rule="evenodd" d="M1078.03 749.384C1082.02 749.384 1085.26 752.625 1085.26 756.622C1085.26 760.544 1082.14 763.738 1078.25 763.857L1078.03 763.86H874.468C870.475 763.86 867.238 760.62 867.238 756.622C867.238 752.7 870.354 749.507 874.243 749.388L874.468 749.384H1078.03ZM1029.86 785.845C1033.85 785.845 1037.08 789.086 1037.08 793.083C1037.08 797.005 1033.97 800.199 1030.08 800.318L1029.86 800.321H874.468C870.475 800.321 867.238 797.081 867.238 793.083C867.238 789.161 870.354 785.968 874.243 785.848L874.468 785.845H1029.86ZM989.881 829.544C989.881 825.546 986.644 822.306 982.651 822.306H874.468L874.243 822.309C870.354 822.428 867.238 825.622 867.238 829.544C867.238 833.541 870.475 836.782 874.468 836.782H982.651L982.876 836.779C986.765 836.659 989.881 833.466 989.881 829.544Z" fill="#eadbf3"/></g></g></g></g></g></svg>