<?xml version="1.0" encoding="UTF-8"?><!DOCTYPE svg PUBLIC "-//W3C//DTD SVG 1.1//EN" "http://www.w3.org/Graphics/SVG/1.1/DTD/svg11.dtd"><svg xmlns="http://www.w3.org/2000/svg" xmlns:xlink="http://www.w3.org/1999/xlink"><defs><style>.cls-1{fill:#101820}</style><style>.cls-1{fill:#101820}</style></defs><symbol id="contact-us" viewBox="0 0 32 32"><path d="M19.47 31a2 2 0 01-1.8-1.09l-4-7.57a1 1 0 011.77-.93l4 7.57L29 3.06 3 12.49l9.8 5.26 8.32-8.32a1 1 0 011.42 1.42l-8.85 8.84a1 1 0 01-1.17.18L2.09 14.33a2 2 0 01.25-3.72l25.91-9.48a2 2 0 012.62 2.62l-9.48 25.91A2 2 0 0119.61 31z" fill="inherit" data-name="Layer 45"/></symbol><symbol id="home" viewBox="0 0 32 32"><path d="M29 14a1 1 0 01-.52-.15L16 6.17 3.52 13.85a1 1 0 11-1-1.7l13-8a1 1 0 011 0l13 8A1 1 0 0129 14zm-7 14H10a5 5 0 01-5-5v-7a1 1 0 012 0v7a3 3 0 003 3h12a3 3 0 003-3v-7a1 1 0 012 0v7a5 5 0 01-5 5z" data-name="Layer 127"/></symbol><symbol id="more" viewBox="0 0 4335 4335"><path d="M587 1652c264 0 478 214 478 478s-214 478-478 478-478-214-478-478 214-478 478-478zm1588 0c264 0 478 214 478 478s-214 478-478 478-478-214-478-478 214-478 478-478zm1588 0c264 0 478 214 478 478s-214 478-478 478-478-214-478-478 214-478 478-478z" fill="inherit"/></symbol><symbol id="open-source" viewBox="0 0 32 32"><g data-name="Layer 8" id="Layer_8"><path class="cls-1" d="M18 31H8a5 5 0 01-5-5V16a1 1 0 011-1h18a1 1 0 011 1v10a5 5 0 01-5 5zM5 17v9a3 3 0 003 3h10a3 3 0 003-3v-9z"/><path class="cls-1" d="M26 27a1 1 0 010-2 1 1 0 001-1v-4a1 1 0 00-1-1h-4a1 1 0 010-2h4a3 3 0 013 3v4a3 3 0 01-3 3zm-4-14a1 1 0 01-.69-.28l-5.1-4.92a3.9 3.9 0 010-5.65 4.18 4.18 0 015.76 0 4.18 4.18 0 015.76 0 3.9 3.9 0 010 5.65l-5.1 4.92A1 1 0 0122 13zM19.08 3a2.11 2.11 0 00-1.48.59 1.91 1.91 0 000 2.78l4.4 4.24 4.4-4.24a1.91 1.91 0 000-2.78 2.22 2.22 0 00-3 0l-.73.7a1 1 0 01-1.38 0l-.73-.7A2.16 2.16 0 0019.08 3zM8 13a1 1 0 01-.66-.24L4 9.81a2.62 2.62 0 010-4 3.36 3.36 0 014-.18 3.38 3.38 0 014.05.14 2.62 2.62 0 010 4l-3.39 2.99A1 1 0 018 13zM6.06 7a1.2 1.2 0 00-.8.28.66.66 0 00-.26.51.69.69 0 00.26.51L8 10.68l2.74-2.38a.69.69 0 00.26-.51.66.66 0 00-.26-.51 1.33 1.33 0 00-1.6 0l-.48.42a1 1 0 01-1.32 0l-.48-.42a1.22 1.22 0 00-.8-.28z"/></g></symbol><symbol id="products" viewBox="0 0 32 32"><g data-name="Layer 14" id="Layer_14"><path class="cls-1" d="M23 31H9a3 3 0 01-3-3V4a3 3 0 013-3h14a3 3 0 013 3v24a3 3 0 01-3 3zM9 3a1 1 0 00-1 1v24a1 1 0 001 1h14a1 1 0 001-1V4a1 1 0 00-1-1z"/><path class="cls-1" d="M25 25H7a1 1 0 010-2h18a1 1 0 010 2zm-8 3h-2a1 1 0 010-2h2a1 1 0 010 2zm8-21H7a1 1 0 010-2h18a1 1 0 010 2zm-9 12a1 1 0 01-.66-.25L12 15.81a2.62 2.62 0 010-4 3.36 3.36 0 014-.18 3.38 3.38 0 014.05.14 2.62 2.62 0 010 4l-3.39 2.94A1 1 0 0116 19zm-1.94-6a1.2 1.2 0 00-.8.28.66.66 0 00-.26.51.69.69 0 00.26.51L16 16.68l2.74-2.38a.69.69 0 00.26-.51.66.66 0 00-.26-.51 1.32 1.32 0 00-1.6 0l-.48.42a1 1 0 01-1.32 0l-.48-.42a1.22 1.22 0 00-.8-.28z"/></g></symbol></svg>