<?xml version="1.0" encoding="UTF-8"?><!DOCTYPE svg PUBLIC "-//W3C//DTD SVG 1.1//EN" "http://www.w3.org/Graphics/SVG/1.1/DTD/svg11.dtd"><svg xmlns="http://www.w3.org/2000/svg" xmlns:xlink="http://www.w3.org/1999/xlink"><defs><style>.cls-1{fill:currentColor}</style><style>.cls-1{fill:#101820}</style><style>.cls-1{fill:#101820}</style><style>.cls-1{fill:#101820}</style><style>.cls-1{fill:#101820}</style></defs><symbol id="blog" viewBox="0 0 32 32"><g data-name="Layer 11" id="Layer_11"><path class="cls-1" d="M16 31a1 1 0 01-.7-.29L3.41 18.91a8.1 8.1 0 010-11.53 8.24 8.24 0 0111.6 0A1 1 0 0115 8.8a1 1 0 01-1.42 0 6.25 6.25 0 00-8.78 0 6.12 6.12 0 000 8.69L16 28.59l11.19-11.1a6.15 6.15 0 001.73-5.33 1 1 0 112-.32 8.14 8.14 0 01-2.3 7.07L16.7 30.71a1 1 0 01-.7.29z"/><path class="cls-1" d="M16 17a1 1 0 01-.71-.29 1 1 0 01-.28-.85l.74-5.16a1 1 0 01.28-.56l8.84-8.85a1 1 0 011.42 0l4.42 4.42a1 1 0 010 1.42L21.86 16a1 1 0 01-.56.28l-5.16.72zm1.68-5.69l-.5 3.51 3.51-.5 7.9-7.9-3-3z"/></g></symbol><symbol id="celtic-knot" viewBox="0 0 64 64"><path d="M57.84 33.666l-.254-.254-3.53 3.536-.002.002.256.256a2.365 2.365 0 01-3.35 3.34l-7.136-7.136-.001.003-3.531 3.535 7.138 7.138a7.364 7.364 0 1010.41-10.42zM30.33 6.156a7.365 7.365 0 00-10.42 10.41l.266.266 3.528-3.538.002-.002-.256-.256a2.365 2.365 0 011.67-4.04 2.346 2.346 0 011.67.69l7.146 7.146.001-.002 3.53-3.536zm17.355 24.426l3.541-3.53-7.392-7.392-3.54 3.53 7.391 7.392zm-13.759 0l3.54-3.53-7.392-7.392-3.54 3.53 7.392 7.392z"/><path d="M44.09 6.156a7.382 7.382 0 00-10.42 0l-.256.256 3.536 3.536.26-.262a2.366 2.366 0 013.34 0 2.378 2.378 0 010 3.35l-7.134 7.138 3.536 3.536 7.138-7.144a7.37 7.37 0 000-10.41zM19.662 33.93l7.394-7.39 3.53 3.533-7.393 7.39zm14.274 10.412l.001-.002 3.527-3.536.002-.002-7.392-7.392-3.528 3.538-.002.002 7.392 7.392zm-.521-10.422l7.393-7.389 3.537 3.539-7.394 7.39zM16.57 19.906a7.364 7.364 0 00-10.41 10.42l.257.257 3.536-3.534-.263-.263a2.365 2.365 0 013.35-3.34l7.136 7.136 3.537-3.533zm3.093.265l7.392-7.39 3.532 3.531-7.392 7.391z"/><path d="M6.16 33.666a7.364 7.364 0 0010.41 10.42l.262-.26-3.536-3.536-.256.256a2.365 2.365 0 01-3.35-3.34l7.144-7.138-3.536-3.535z"/><path d="M23.707 40.804l-7.393-7.393-.002.002-3.526 3.535-.002.002 7.392 7.392.004-.004 3.527-3.534zm3.345 13.242l-.262.26a2.365 2.365 0 11-3.34-3.35l7.14-7.135-3.536-3.533-7.144 7.138a7.364 7.364 0 1010.42 10.41l.256-.256zm30.788-34.14a7.37 7.37 0 00-10.41 0l-.26.262 3.534 3.534.256-.256a2.365 2.365 0 113.35 3.34l-7.138 7.144 3.535 3.534 7.133-7.138a7.381 7.381 0 000-10.42zM33.416 47.685l7.39-7.394 3.538 3.537-7.39 7.394z"/><path d="M44.09 47.426l-.256-.255-3.54 3.53.256.255a2.365 2.365 0 01-3.34 3.35l-7.135-7.135-3.539 3.532 7.134 7.133a7.364 7.364 0 0010.42-10.41z"/></symbol><symbol id="compass" viewBox="0 0 32 32"><g data-name="10-drive-now" id="_10-drive-now"><path class="cls-1" d="M16 30a14 14 0 1114-14 14 14 0 01-14 14zm0-26a12 12 0 1012 12A12 12 0 0016 4z"/><path class="cls-1" d="M23 23a1 1 0 01-.5-.13L16 19.15l-6.5 3.72a1 1 0 01-1.4-1.29l7-15a1 1 0 011.81 0l7 15A1 1 0 0123 23zm-7-6a1 1 0 01.5.13l4.27 2.44L16 9.36l-4.76 10.2 4.27-2.44A1 1 0 0116 17z"/></g></symbol><symbol id="contact-us" viewBox="0 0 32 32"><path d="M19.47 31a2 2 0 01-1.8-1.09l-4-7.57a1 1 0 011.77-.93l4 7.57L29 3.06 3 12.49l9.8 5.26 8.32-8.32a1 1 0 011.42 1.42l-8.85 8.84a1 1 0 01-1.17.18L2.09 14.33a2 2 0 01.25-3.72l25.91-9.48a2 2 0 012.62 2.62l-9.48 25.91A2 2 0 0119.61 31z" fill="inherit" data-name="Layer 45"/></symbol><symbol id="home" viewBox="0 0 32 32"><path d="M29 14a1 1 0 01-.52-.15L16 6.17 3.52 13.85a1 1 0 11-1-1.7l13-8a1 1 0 011 0l13 8A1 1 0 0129 14zm-7 14H10a5 5 0 01-5-5v-7a1 1 0 012 0v7a3 3 0 003 3h12a3 3 0 003-3v-7a1 1 0 012 0v7a5 5 0 01-5 5z" data-name="Layer 127"/></symbol><symbol id="hype" viewBox="0 0 32 32"><path d="M22 26a1 1 0 01-.69-.28L15.43 20a4.62 4.62 0 010-6.68A4.85 4.85 0 0118.82 12 4.85 4.85 0 0122 13.15a5 5 0 016.57.22 4.62 4.62 0 010 6.68l-5.88 5.68A1 1 0 0122 26zm-3.17-12a2.87 2.87 0 00-2 .8 2.62 2.62 0 000 3.8l5.18 5 5.18-5a2.62 2.62 0 000-3.8 2.92 2.92 0 00-4 0l-.45.44a1 1 0 01-1.39 0l-.45-.44a2.87 2.87 0 00-2-.8zm3.63.08zM29 8H3a1 1 0 010-2h26a1 1 0 010 2zm-18 6H3a1 1 0 010-2h8a1 1 0 010 2zm0 6H3a1 1 0 010-2h8a1 1 0 010 2zm4 6H3a1 1 0 010-2h12a1 1 0 010 2z" fill="currentColor" data-name="14-favorite-list"/></symbol><symbol id="more" viewBox="0 0 4335 4335"><path d="M587 1652c264 0 478 214 478 478s-214 478-478 478-478-214-478-478 214-478 478-478zm1588 0c264 0 478 214 478 478s-214 478-478 478-478-214-478-478 214-478 478-478zm1588 0c264 0 478 214 478 478s-214 478-478 478-478-214-478-478 214-478 478-478z" fill="inherit"/></symbol><symbol id="open-source" viewBox="0 0 32 32"><g data-name="Layer 8" id="Layer_8"><path class="cls-1" d="M18 31H8a5 5 0 01-5-5V16a1 1 0 011-1h18a1 1 0 011 1v10a5 5 0 01-5 5zM5 17v9a3 3 0 003 3h10a3 3 0 003-3v-9z"/><path class="cls-1" d="M26 27a1 1 0 010-2 1 1 0 001-1v-4a1 1 0 00-1-1h-4a1 1 0 010-2h4a3 3 0 013 3v4a3 3 0 01-3 3zm-4-14a1 1 0 01-.69-.28l-5.1-4.92a3.9 3.9 0 010-5.65 4.18 4.18 0 015.76 0 4.18 4.18 0 015.76 0 3.9 3.9 0 010 5.65l-5.1 4.92A1 1 0 0122 13zM19.08 3a2.11 2.11 0 00-1.48.59 1.91 1.91 0 000 2.78l4.4 4.24 4.4-4.24a1.91 1.91 0 000-2.78 2.22 2.22 0 00-3 0l-.73.7a1 1 0 01-1.38 0l-.73-.7A2.16 2.16 0 0019.08 3zM8 13a1 1 0 01-.66-.24L4 9.81a2.62 2.62 0 010-4 3.36 3.36 0 014-.18 3.38 3.38 0 014.05.14 2.62 2.62 0 010 4l-3.39 2.99A1 1 0 018 13zM6.06 7a1.2 1.2 0 00-.8.28.66.66 0 00-.26.51.69.69 0 00.26.51L8 10.68l2.74-2.38a.69.69 0 00.26-.51.66.66 0 00-.26-.51 1.33 1.33 0 00-1.6 0l-.48.42a1 1 0 01-1.32 0l-.48-.42a1.22 1.22 0 00-.8-.28z"/></g></symbol><symbol id="products" viewBox="0 0 32 32"><g data-name="Layer 14" id="Layer_14"><path class="cls-1" d="M23 31H9a3 3 0 01-3-3V4a3 3 0 013-3h14a3 3 0 013 3v24a3 3 0 01-3 3zM9 3a1 1 0 00-1 1v24a1 1 0 001 1h14a1 1 0 001-1V4a1 1 0 00-1-1z"/><path class="cls-1" d="M25 25H7a1 1 0 010-2h18a1 1 0 010 2zm-8 3h-2a1 1 0 010-2h2a1 1 0 010 2zm8-21H7a1 1 0 010-2h18a1 1 0 010 2zm-9 12a1 1 0 01-.66-.25L12 15.81a2.62 2.62 0 010-4 3.36 3.36 0 014-.18 3.38 3.38 0 014.05.14 2.62 2.62 0 010 4l-3.39 2.94A1 1 0 0116 19zm-1.94-6a1.2 1.2 0 00-.8.28.66.66 0 00-.26.51.69.69 0 00.26.51L16 16.68l2.74-2.38a.69.69 0 00.26-.51.66.66 0 00-.26-.51 1.32 1.32 0 00-1.6 0l-.48.42a1 1 0 01-1.32 0l-.48-.42a1.22 1.22 0 00-.8-.28z"/></g></symbol><symbol id="sustainable" viewBox="0 0 44 44"><style/><path d="M25 21c.3 0 .5-.1.7-.3l8-8c.4-.4.4-1 0-1.4s-1-.4-1.4 0L28 15.6c-.6-.9-1-1.9-1-2.9 0-1.4.7-2.8 2-4.1 2.2-2.1 8.3-3.7 11.8-4.4-.7 3.4-2.3 9.5-4.4 11.7-1.7 1.7-3.4 2.4-5.1 2-.5-.1-1.1.2-1.2.8-.1.5.2 1.1.8 1.2.4.1.9.1 1.3.1 1.5 0 3.5-.6 5.6-2.7C41.3 13.9 43 3.6 43 3.1c.1-.3-.1-.6-.3-.9-.2-.1-.5-.2-.9-.2-.4.1-10.8 1.8-14.2 5.2-1.7 1.7-2.6 3.6-2.6 5.6 0 1.5.6 3 1.5 4.3l-2.2 2.2c-.4.4-.4 1 0 1.4.2.2.4.3.7.3zm-12.6-7.7c.7.7 1.5 1.2 2.3 1.5h.3c.4 0 .8-.3 1-.7.2-.5-.1-1.1-.6-1.3-.5-.2-1-.5-1.5-1-1.2-1.2-2.1-4.4-2.5-6.6 2.1.5 5.4 1.4 6.5 2.5 1.2 1.2 1.5 2.4.9 3.5l-1-1c-.4-.4-1-.4-1.4 0-.4.4-.4 1 0 1.4l4 4c.2.2.5.3.7.3s.5-.1.7-.3c.4-.4.4-1 0-1.4l-1.6-1.6c1.4-2 1.1-4.3-.9-6.3C17 4.2 10.9 3.1 10.2 3c-.4 0-.7.1-.9.3-.2.2-.3.5-.3.9.1.7 1.2 6.9 3.4 9.1zm31.3 14c-2.1-2.1-5.3-2.5-7.8-1.1l-4.2 2c-1.1.5-2.4.8-3.7.9.6-.8 1-1.9 1-3s-.9-2-2-2H16.6c-2.6 0-5.1 1.1-6.8 3.1l-3.5 4C5.8 30.4 4.9 30 4 30H1c-.6 0-1 .4-1 1s.4 1 1 1h3c.6 0 1 .4 1 1v6c0 .6-.4 1-1 1H1c-.6 0-1 .4-1 1s.4 1 1 1h3c1.3 0 2.4-.8 2.8-2h5.5c.5 0 1 0 1.4-.1l14.1-1.6c2.3-.3 4.5-1.1 6.4-2.5l9.4-7c.2-.2.4-.4.4-.7s-.1-.6-.3-.8zM33 34.2c-1.6 1.2-3.4 1.9-5.4 2.1l-14.1 1.6c-.4 0-.8.1-1.2.1H7v-4.6l4.4-5c1.3-1.5 3.2-2.4 5.3-2.4H27c0 1.7-1.3 3-3 3h-6c-.6 0-1 .4-1 1s.4 1 1 1h9.7c1.7 0 3.3-.4 4.8-1.1l4.3-2c1.4-.8 3.2-.8 4.6.1L33 34.2z" id="Layer_20"/></symbol><symbol id="team" viewBox="0 0 32 32"><g data-name="14-friend" id="_14-friend"><path class="cls-1" d="M11 28H3a1 1 0 01-1-1v-4a8 8 0 018-8 1 1 0 010 2 6 6 0 00-6 6v3h7a1 1 0 010 2zm18 0H15a1 1 0 01-1-1v-4a8 8 0 0116 0v4a1 1 0 01-1 1zm-13-2h12v-3a6 6 0 00-12 0zm6-12a5 5 0 115-5 5 5 0 01-5 5zm0-8a3 3 0 103 3 3 3 0 00-3-3zm-12 8a5 5 0 115-5 5 5 0 01-5 5zm0-8a3 3 0 103 3 3 3 0 00-3-3z"/><path class="cls-1" d="M13 17h-3a1 1 0 010-2h3a1 1 0 010 2z"/></g></symbol></svg>