<svg
  class="logo"
  xmlns="http://www.w3.org/2000/svg" 
  viewBox="0 0 76 80"
  height="76px">
  <style>
    .text {
      fill: var(--primary-highlight);
    }

    .kite.bg {
      fill: var(--primary-accent);
    }

    .kite.fg {
      fill: var(--primary-highlight);
    }  
  </style>  <path class="kite bg"
    d="M219.14,416.32a59.48,59.48,0,0,1-28.62,28.74,42.15,42.15,0,0,1-14.39,13.34c16.27-.34,30.44-5.36,40.67-15.66s15.29-24.51,15.6-40.88A42.11,42.11,0,0,1,219.14,416.32Z"
    transform="translate(-157.12 -383.49)" />
  <path class="kite fg"
    d="M219.14,416.32c4.58-9.66,6.94-20.77,7.17-32.83-.8,1-11.16,23.51-42,26.58-3.06,31-25.5,41.4-26.47,42.22,12-.26,23.06-2.62,32.68-7.23a45.79,45.79,0,0,0,7.35-21.36A45.34,45.34,0,0,0,219.14,416.32Z"
    transform="translate(-157.12 -383.49)" />
  <path d="M219.14,416.32a45.34,45.34,0,0,1-21.27,7.38,45.79,45.79,0,0,1-7.35,21.36,59.48,59.48,0,0,0,28.62-28.74Z"
    transform="translate(-157.12 -383.49)" />
</svg>