<?xml version="1.0" encoding="UTF-8"?><!DOCTYPE svg PUBLIC "-//W3C//DTD SVG 1.1//EN" "http://www.w3.org/Graphics/SVG/1.1/DTD/svg11.dtd"><svg xmlns="http://www.w3.org/2000/svg" xmlns:xlink="http://www.w3.org/1999/xlink"><defs/><symbol id="delete" viewBox="0 0 448 512"><!--! Font Awesome Pro 6.0.0-beta1 by @fontawesome - https://fontawesome.com License - https://fontawesome.com/license (Commercial License)--><path d="M400.8 128c-8.284 0-15.2 6.324-15.94 14.58L356 465.4c-.6 8.2-7.6 14.6-15.9 14.6H107.9c-8.27 0-15.27-6.4-15.9-14.6L63.16 142.6c-.74-8.3-7.65-14.6-15.93-14.6-9.4 0-16.78 8.1-15.94 17.4l28.84 322.8C62.38 493 83 512 107.9 512h232.3c24.88 0 45.5-19 47.75-43.75l28.84-322.8c.71-9.35-6.59-17.45-15.99-17.45zM432 64h-96l-33.63-44.75C293.4 7.125 279.1 0 264 0h-80c-15.1 0-29.4 7.125-38.4 19.25L112 64H16C7.2 64 0 71.2 0 80s7.2 16 16 16h416c8.8 0 16-7.2 16-16s-7.2-16-16-16zm-280 0 19.25-25.62C174.3 34.38 179 32 184 32h80c5 0 9.75 2.375 12.75 6.375L296 64H152z"/></symbol><symbol id="file-actions" viewBox="0 0 640 512"><!--! Font Awesome Pro 6.0.0-beta1 by @fontawesome - https://fontawesome.com License - https://fontawesome.com/license (Commercial License)--><path d="M160 120c-30.88 0-56 25.12-56 56s25.1 56 56 56 56-25.1 56-56-25.1-56-56-56zm0 80c-13.23 0-24-10.78-24-24s10.8-24 24-24 24 10.8 24 24-10.8 24-24 24zm467.8 118.3c-2.422-11.69-12.95-20.11-25.03-20.11H582.9a130.414 130.414 0 0 0-12.84-22.23l9.969-17.27c2.234-3.906 3.461-8.401 3.461-12.87 0-7.25-3.078-14.15-8.469-18.97C558 211.7 538.4 200.4 516.8 193.3c-11.34-3.688-23.98 1.102-30.07 11.57l-9.641 16.69c-8.781-.938-17.22-.977-26.28-.008L441.2 204.9c-6.062-10.47-18.66-15.4-30.04-11.59-21.59 7.125-41.1 18.36-58.21 33.52-5.344 4.781-8.508 11.74-8.508 18.99 0 4.469 1.18 8.901 3.445 12.87l9.812 16.98a130.96 130.96 0 0 0-13.04 22.52h-19.5c-12.08 0-22.62 8.477-25.02 20.13-2.375 11.31-3.57 22.66-3.57 33.72s1.203 22.46 3.562 33.74c2.422 11.69 12.95 20.1 25.03 20.1h19.5a130.453 130.453 0 0 0 13.04 22.52l-9.797 16.98c-2.234 3.906-3.461 8.396-3.461 12.87 0 7.312 3.117 14.26 8.461 18.95 17.05 15.12 36.65 26.4 58.23 33.55 11.41 3.719 23.99-1.086 30.05-11.55l9.641-16.7c9.047.969 17.36.977 26.28-.023l9.656 16.73C491.5 507.3 500.1 512 508.1 512c2.609 0 5.266-.397 7.844-1.271 21.61-7.156 41.28-18.48 58.25-33.55 5.422-4.75 8.469-11.65 8.469-18.96 0-4.469-1.195-8.896-3.461-12.87l-9.969-17.27c5.016-7 9.312-14.43 12.84-22.24h19.87c12.08 0 22.62-8.468 25.02-20.12C630.2 374.4 631.4 363.1 631.4 352s-1.2-22.5-3.6-33.7zm-30.3 55.5h-36.73l-3.75 10.72c-4.062 11.62-10.23 22.31-18.33 31.72l-7.391 8.625 18.39 31.84a134.276 134.276 0 0 1-37.88 21.81l-18.11-31.41-11.17 2.125c-12.03 2.312-25.05 2.312-37.14.031l-11.16-2.125-18.08 31.38c-13.77-5.156-26.45-12.47-37.88-21.81l18.27-31.62-7.438-8.625c-8.188-9.469-14.42-20.22-18.52-31.94l-3.75-10.72h-36.38A129.128 129.128 0 0 1 328.6 352c0-7.125.625-14.47 1.891-21.84h36.38l3.75-10.72c4.094-11.72 10.33-22.47 18.52-31.94l7.438-8.625-18.28-31.62a134.885 134.885 0 0 1 37.89-21.81l18.08 31.38 11.16-2.125c12.06-2.281 25.05-2.344 37.08.031l11.22 2.188 18.12-31.47c13.78 5.188 26.5 12.5 37.89 21.81l-18.41 31.84 7.391 8.625c8.094 9.406 14.27 20.09 18.33 31.72l3.75 10.72h36.73c1.25 7.375 1.891 14.69 1.891 21.84-.021 7.096-.621 14.496-1.921 21.796zm-290.4-175-16.6-9.6c.5-4.469.734-8.781.734-12.97 0-4.375-.25-8.781-.75-13.31l16.72-9.656C317.6 147.1 322.5 134.5 318.7 123.2c-7.2-21.7-18.4-41.26-33.6-58.32-7.7-8.72-21.7-10.82-31.7-4.94l-17.3 9.97c-7-5.031-14.42-9.312-22.23-12.84V37.19c0-12-8.422-22.53-20.12-25.03-22.5-4.75-44.86-4.75-67.52 0-11.62 2.5-20.06 13.03-20.06 25.03v19.88c-7.83 3.52-15.26 7.81-22.25 12.84L66.7 59.97c-10.19-5.938-24.17-3.75-31.89 4.969-15.06 17-26.36 36.59-33.53 58.22C-2.5 134.5 2.359 147.1 12.86 153.2l16.69 9.656c-.5 4.531-.75 8.938-.75 13.31 0 4.188.234 8.5.734 12.97L12.91 198.8c-10.551 6-15.441 18.6-11.644 30 7.203 21.66 18.48 41.25 33.47 58.13 7.688 8.844 21.83 10.94 31.91 5.156l16.98-9.812a129.467 129.467 0 0 0 22.52 13.03v19.5c0 12 8.438 22.53 20.14 25.03C137.5 342.2 148.9 343.4 160 343.4s22.47-1.188 33.8-3.562c11.62-2.5 20.05-13.03 20.05-25.03v-19.5a129.908 129.908 0 0 0 22.52-13.03l16.94 9.75c10.19 5.072 24.19 3.772 31.89-4.928 15.08-17 26.36-36.59 33.55-58.22 3.75-11.38-1.05-24.08-11.65-30.08zm-49.8-41.3c1.156 6.062 1.906 12.31 1.906 18.72 0 6.312-.766 12.44-1.891 18.44L255.2 205.8l31.33 18.09a134.064 134.064 0 0 1-21.81 37.84L233.1 243.5l-8.6 7.4c-9.422 8.125-20.17 14.38-31.95 18.5l-10.75 3.8v36.38c-14.67 2.5-29.09 2.5-43.7 0V273.2l-10.7-3.8c-11.8-4.1-22.5-10.4-31.9-18.5l-8.59-7.5-31.66 18.3c-9.297-11.34-16.61-24.03-21.81-37.84l31.33-18.09-2.08-11.17c-1.125-6-1.891-12.12-1.891-18.44 0-6.406.75-12.66 1.906-18.72l2.125-11.16-31.39-18.16a135.045 135.045 0 0 1 21.8-37.88l31.86 18.41 8.609-7.375c9.438-8.125 20.11-14.28 31.72-18.34l10.72-3.75V42.47c14.7-2.5 29.09-2.5 43.7 0v36.78l10.73 3.719c11.59 4.062 22.28 10.22 31.72 18.34l8.609 7.375 31.86-18.41c9.297 11.41 16.59 24.09 21.8 37.88l-31.39 18.16L257.3 157.5zM464 296c-30.88 0-56 25.12-56 56s25.12 56 56 56 56-25.12 56-56-25.1-56-56-56zm0 80c-13.23 0-24-10.78-24-24s10.77-24 24-24 24 10.78 24 24-10.8 24-24 24z"/></symbol><symbol id="home" viewBox="0 0 576 512"><!--! Font Awesome Pro 6.0.0-beta1 by @fontawesome - https://fontawesome.com License - https://fontawesome.com/license (Commercial License)--><path d="M575.1 256c0-4.435-1.83-8.841-5.422-12L298.578 4c-3.016-2.656-6.797-3.997-10.58-3.997S280.4 1.344 277.4 4L6.3 244c-4.469 3.2-6.299 7.6-6.299 12 0 8.92 7.238 15.99 16.04 15.99 3.757 0 7.52-1.313 10.54-3.993l37.42-33.02.006 197C64.01 476.1 99.9 512 144 512h287.1c44.11 0 79.1-35.87 79.1-79.1l.001-197L549.4 268c3.1 2.7 6.8 4 9.7 4 9.6 0 16-7.1 16-16zm-96-48v224c0 26.47-21.53 48-47.1 48H144c-26.47 0-47.1-21.53-47.1-48V208c0-.377-.19-.691-.215-1.062L288 37.34l192.2 169.6c0 .36-1.1.66-1.1 1.06z"/></symbol><symbol id="new-file" viewBox="0 0 384 512"><!--! Font Awesome Pro 6.0.0-beta1 by @fontawesome - https://fontawesome.com License - https://fontawesome.com/license (Commercial License)--><path d="M208 255.1c0-7.9-7.2-15.1-16-15.1s-16 7.2-16 15.1v64h-64c-8.84 0-16 7.16-16 15.1 0 8.834 7.156 15.1 16 15.1h64v64c0 11.5 7.2 18.7 16 18.7 8.836 0 16-7.16 16-15.1v-65.8h64c8.84 0 16-7.16 16-15.1s-7.16-15.1-16-15.1h-64v-65.8zm157.3-129.8L258.8 18.8C246.7 6.742 230.5 0 213.5 0H64C28.66 0 0 28.65 0 64l.006 384c0 35.35 28.66 64 64 64H320c35.35 0 64-28.65 64-64V170.5c0-17-6.7-33.2-18.7-45.2zM224 34.08c4.477 1.566 8.664 3.846 12.12 7.299l106.5 106.5c3.48 3.421 5.78 7.621 7.28 12.121H240c-8.8 0-16-7.2-16-16V34.08zM352 448c0 17.64-14.36 32-32 32H64c-17.64 0-32-14.36-32-32V64c0-17.64 14.36-32 32-32h128v112c0 26.5 21.5 48 48 48h112v256z"/></symbol><symbol id="new-folder" viewBox="0 0 512 512"><!--! Font Awesome Pro 6.0.0-beta1 by @fontawesome - https://fontawesome.com License - https://fontawesome.com/license (Commercial License)--><path d="M448 96H272l-45.3-45.25C214.7 38.74 198.5 32 181.5 32H64C28.66 32 0 60.65 0 96v320c0 35.35 28.66 64 64 64h384c35.34 0 64-28.65 64-64V160c0-35.3-28.7-64-64-64zm32 320c0 17.64-14.36 32-32 32H64c-17.64 0-32-14.36-32-32V96c0-17.64 14.36-32 32-32h117.5c8.547 0 16.58 3.328 22.62 9.375L258.7 128H448c17.64 0 32 14.36 32 32v256zM336 272h-64v-64.9c0-7.9-7.2-15.1-16-15.1s-16 7.2-16 15.1V272h-64c-8.8 0-16 7.2-16 16 0 8.834 7.156 15.1 16 15.1h64v64c0 9.7 7.2 16.9 16 16.9 8.836 0 16-7.16 16-15.1v-65.8h64c8.8 0 16-6.3 16-15.1s-7.2-16-16-16z"/></symbol><symbol id="preview" viewBox="0 0 576 512"><!--! Font Awesome Pro 6.0.0-beta1 by @fontawesome - https://fontawesome.com License - https://fontawesome.com/license (Commercial License)--><path d="M288 128c-70.7 0-128 57.3-128 128s57.33 128 128 128c70.64 0 128-57.32 128-127.9 0-70.7-57.3-128.1-128-128.1zm0 224c-52.93 0-96-43.06-96-96s43.07-96 96-96c52.94 0 96 43.02 96 96.01 0 52.89-43.9 95.99-96 95.99zm284.5-113.9C518.3 115.5 410.9 32 288 32S57.69 115.6 3.469 238.1C1.563 243.4 0 251 0 256c0 4.977 1.562 12.6 3.469 17.03C57.72 396.5 165.1 480 288 480s230.3-83.58 284.5-206.1c1.9-5.3 3.5-13.8 3.5-17.9 0-5-1.6-12.6-3.5-17.9zm-29.3 22.1C492.3 376 394.5 448 288 448S83.7 376.02 33 260.7c-.42-1.1-.95-3.8-1.9-4.5.055-1.146.586-3.783.77-4.363C83.68 135.1 181.5 64 288 64s204.3 71.98 255 187.3c.395 1.08.924 3.713.979 4.443-.079 1.157-.579 3.857-.779 4.457z"/></symbol><symbol id="project" viewBox="0 0 512 512"><!--! Font Awesome Pro 6.0.0-beta1 by @fontawesome - https://fontawesome.com License - https://fontawesome.com/license (Commercial License)--><path d="M464 32H48C21.49 32 0 53.49 0 80v64c0 8.8 7.25 16 16 16h16v256c0 35.35 28.65 64 64 64h320c35.35 0 64-28.65 64-64V160h16c8.8 0 16-7.2 16-16V80c0-26.51-21.5-48-48-48zm-16 384c0 17.6-14.4 32-32 32H96c-17.6 0-32-14.4-32-32V160h384v256zm32-288H32V80c0-8.75 7.25-16 16-16h416c8.8 0 16 7.25 16 16v48zM176 256h160c8.8 0 16-7.2 16-16s-7.2-16-16-16H176c-8.8 0-16 7.2-16 16s7.2 16 16 16z"/></symbol><symbol id="publish" viewBox="0 0 512 512"><!--! Font Awesome Pro 6.0.0-beta1 by @fontawesome - https://fontawesome.com License - https://fontawesome.com/license (Commercial License)--><path d="M367.1 88c-30.87 0-55.1 25.12-55.1 56 0 31 25.12 56 55.1 56 30.1 0 55.1-25 55.1-56 .9-30.9-24.1-56-55.1-56zm0 80c-13.25 0-23.1-10.75-23.1-24s10.75-24 23.1-24c13.25 0 23.1 10.75 23.1 24s-9 24-23.1 24zm138-148.75C503.975 13.875 499 8 492.73 6.88 460.6 0 435.4 0 410.4 0c-103.2 0-165 55.25-211.3 128H94.92c-16.25 0-35.62 11.9-42.87 26.5l-49.4 98.7c-1.5 3.4-2.425 7-2.55 10.8 0 13.25 10.8 24 24.05 24h103.9c52.1 0 95.99 43 95.99 96l-.012 104c0 13.25 10.75 24 23.1 24 3.75-.125 7.375-.925 10.75-2.55l98.69-49.38c14.62-7.25 26.5-26.58 26.5-42.83V312.8c72.62-46.25 127.1-108.4 127.1-211 1.932-25.3 1.932-50.42-5.068-82.55zM37.12 256l43.62-87.25c1.88-3.65 10.13-8.75 14.25-8.75h85.12c-14.01 28-31.71 64-47.61 96l.125.375C131.1 256.4 60.1 256 37.12 256zM351.1 417.2c0 4.125-5.125 12.38-8.75 14.13L256.1 475c0-23.88-.375-94-.5-95.63l-.5.13c31.1-15.88 67.87-33.63 95.87-47.63l.13 85.33zm-101.2-70.6c-12.4-40.4-44.2-72.1-84.7-84.5C217.4 158.1 264.1 32 410.5 32c21.12 0 41.25 0 65.37 4.125 4.25 24.38 4.125 44.5 4.125 65.63C479.1 246.6 352.1 295.1 249.9 346.6zM102.4 320C55.3 320 2 359.38.2 480L0 512h31.1c171.6-3.375 184.9-115.2 133.7-166.6-13.9-15-37.6-25.4-62.4-25.4zm53 109.4c-12.87 31.12-57.62 49.38-123.4 50.5-.9-3.5-1.13-127.9 70.4-127.9 15.12 0 31.12 6.375 40.87 16.12C155.1 381 164.6 406.8 155.4 429.4z"/></symbol><symbol id="rename" viewBox="0 0 640 512"><!--! Font Awesome Pro 6.0.0-beta1 by @fontawesome - https://fontawesome.com License - https://fontawesome.com/license (Commercial License)--><path d="M112 160c-8.8 0-16 7.2-16 16v160c0 8.8 7.2 16 16 16s16-7.2 16-16V176c0-8.8-7.2-16-16-16zm464-96H63.1C28.65 64 0 92.65 0 128v256c0 35.35 28.65 64 63.1 64H576c35.3 0 64-28.7 64-64V128c0-35.35-28.7-64-64-64zm32 320c0 17.64-14.35 32-31.1 32H63.1C46.36 416 32 401.6 32 384V128c0-17.64 14.36-32 31.1-32H576c17.6 0 32 14.4 32 32v256z"/></symbol><symbol id="sign-out" viewBox="0 0 512 512"><path fill="currentColor" d="M176 448H80c-26.47 0-48-21.5-48-48V112c0-26.47 21.53-48 48-48h96c8.8 0 16-7.16 16-16s-7.2-16-16-16H80C35.88 32 0 67.88 0 112v288c0 44.1 35.88 80 80 80h96c8.8 0 16-7.2 16-16s-7.2-16-16-16zm326.6-214.6-128-128c-9.156-9.156-22.91-11.91-34.88-6.938C327.8 103.4 320 115.1 320 128l.092 63.1L176 192c-26.5 0-48 21.5-48 48v32c0 26.5 21.5 48 48 48l144.1-.001L320 384c0 12.94 7.797 24.62 19.75 29.56 11.97 4.969 25.72 2.219 34.88-6.938l128-128C508.9 272.4 512 264.2 512 256s-3.1-16.4-9.4-22.6zM352 384v-96H176c-8.8 0-16-7.2-16-16v-32c0-8.8 7.2-16 16-16h176l-.004-96 128 128L352 384z"/></symbol></svg>